<svg width="55" height="29" viewBox="0 0 55 29" fill="none" xmlns="http://www.w3.org/2000/svg">
<path d="M53.4077 7.53332H54V29L1.05427 29L1.03292 22.5833L3.65158 16.6802L4.68347 19.2936H5.8932L8.31267 16.6802L10.0063 19.2936L15.0872 19.2938L17.7486 16.6803L19.2003 12.7596L21.3132 14.7202L23.2179 16.6802L23.8127 19.6667L25.0224 19.2936H26.5078L29.2782 10.1469L30.144 12.7602L31.5292 10.1469L32.5681 14.7202L35.3386 6.88024L36.897 10.1469H39.8406L42.9573 3.61358L44.862 6.88024L47.3704 4.91999L50.4268 10.1467L51.3273 5.95502L52.3918 0.999995L53.4077 7.53332Z" fill="url(#paint0_linear_398_20013)" fill-opacity="0.16"/>
<path d="M53.8135 10.1467L52.3913 0.999998L50.4262 10.1467L47.3698 4.91999L44.8615 6.88024L42.9568 3.61359L39.84 10.1469L36.8964 10.1469L35.338 6.88024L32.5676 14.7202L31.5287 10.1469L30.1434 12.7602L29.2777 10.1469L26.5072 19.2936H25.0219L23.8121 19.6667L23.2173 16.6802L21.3126 14.7202L19.1997 12.7596L17.748 16.6803L15.0866 19.2938L10.0057 19.2936L8.31212 16.6802L5.89265 19.2936H4.68292L3.65103 16.6802L0.999817 22" stroke="#2E9371" stroke-linecap="round"/>
<defs>
<linearGradient id="paint0_linear_398_20013" x1="45.943" y1="29" x2="45.943" y2="0.999997" gradientUnits="userSpaceOnUse">
<stop stop-color="#2E9371" stop-opacity="0"/>
<stop offset="0.809892" stop-color="#2E9371"/>
</linearGradient>
</defs>
</svg>
